<?xml version="1.0" encoding="UTF-8" standalone="no"?>
<!DOCTYPE svg PUBLIC "-//W3C//DTD SVG 1.1//EN"
 "http://www.w3.org/Graphics/SVG/1.1/DTD/svg11.dtd">
<!-- Generated by graphviz version 2.40.1 (20161225.0304)
 -->
<!-- Title: g Pages: 1 -->
<svg width="1555pt" height="475pt"
 viewBox="0.00 0.00 1554.95 474.50" xmlns="http://www.w3.org/2000/svg" xmlns:xlink="http://www.w3.org/1999/xlink">
<g id="graph0" class="graph" transform="scale(1 1) rotate(0) translate(4 470.5)">
<title>g</title>
<polygon fill="#ffffff" stroke="transparent" points="-4,4 -4,-470.5 1550.9482,-470.5 1550.9482,4 -4,4"/>
<!-- node0 -->
<g id="node1" class="node">
<title>node0</title>
<polygon fill="none" stroke="#000000" points="0,-219.5 0,-363.5 78.6563,-363.5 78.6563,-219.5 0,-219.5"/>
<text text-anchor="middle" x="39.3281" y="-346.7" font-family="Times,serif" font-size="16.00" fill="#000000">2</text>
<polyline fill="none" stroke="#000000" points="0,-339.5 78.6563,-339.5 "/>
<text text-anchor="middle" x="39.3281" y="-322.7" font-family="Times,serif" font-size="16.00" fill="#000000">bet1: 300</text>
<polyline fill="none" stroke="#000000" points="0,-315.5 78.6563,-315.5 "/>
<text text-anchor="middle" x="39.3281" y="-298.7" font-family="Times,serif" font-size="16.00" fill="#000000">bet2: 300</text>
<polyline fill="none" stroke="#000000" points="0,-291.5 78.6563,-291.5 "/>
<text text-anchor="middle" x="39.3281" y="-274.7" font-family="Times,serif" font-size="16.00" fill="#000000">street: 2</text>
<polyline fill="none" stroke="#000000" points="0,-267.5 78.6563,-267.5 "/>
<text text-anchor="middle" x="39.3281" y="-250.7" font-family="Times,serif" font-size="16.00" fill="#000000">board: Ks</text>
<polyline fill="none" stroke="#000000" points="0,-243.5 78.6563,-243.5 "/>
<text text-anchor="middle" x="39.3281" y="-226.7" font-family="Times,serif" font-size="16.00" fill="#000000">depth: 4</text>
</g>
<!-- node1 -->
<g id="node2" class="node">
<title>node1</title>
<polygon fill="none" stroke="#000000" points="424.2354,-408.5 424.2354,-456.5 568.0869,-456.5 568.0869,-408.5 424.2354,-408.5"/>
<text text-anchor="middle" x="496.1611" y="-439.7" font-family="Times,serif" font-size="16.00" fill="#000000">1</text>
<polyline fill="none" stroke="#000000" points="424.2354,-432.5 568.0869,-432.5 "/>
<text text-anchor="middle" x="496.1611" y="-415.7" font-family="Times,serif" font-size="16.00" fill="#000000">TERMINAL FOLD</text>
</g>
<!-- node0&#45;&gt;node1 -->
<g id="0" class="edge">
<title>node0:f0&#45;&gt;node1:f0</title>
<path fill="none" stroke="#000000" d="M78.3281,-351.5C99.1028,-351.5 80.2402,-381.768 96.6563,-394.5 210.3058,-482.6444 273.9332,-446.3155 414.0156,-444.5641"/>
<polygon fill="#000000" stroke="#000000" points="414.2576,-448.0628 424.2354,-444.5 414.2135,-441.0629 414.2576,-448.0628"/>
<text text-anchor="middle" x="251.4458" y="-455.3" font-family="Times,serif" font-size="14.00" fill="#000000">As:0.25, Ah:0.25, Ks:0.25, Kh:0.25, Qs:0.25, Qh:0.25, </text>
</g>
<!-- node2 -->
<g id="node3" class="node">
<title>node2</title>
<polygon fill="none" stroke="#000000" points="424.2393,-341.5 424.2393,-389.5 568.083,-389.5 568.083,-341.5 424.2393,-341.5"/>
<text text-anchor="middle" x="496.1611" y="-372.7" font-family="Times,serif" font-size="16.00" fill="#000000">1</text>
<polyline fill="none" stroke="#000000" points="424.2393,-365.5 568.083,-365.5 "/>
<text text-anchor="middle" x="496.1611" y="-348.7" font-family="Times,serif" font-size="16.00" fill="#000000">TERMINAL CALL</text>
</g>
<!-- node0&#45;&gt;node2 -->
<g id="1" class="edge">
<title>node0:f0&#45;&gt;node2:f0</title>
<path fill="none" stroke="#000000" d="M78.3281,-351.5C86.6657,-351.5 88.4014,-354.3286 96.6563,-355.5 237.7415,-375.5211 276.5145,-377.4193 414.1518,-377.4973"/>
<polygon fill="#000000" stroke="#000000" points="414.2344,-380.9972 424.2354,-377.5 414.2363,-373.9972 414.2344,-380.9972"/>
<text text-anchor="middle" x="251.4458" y="-379.3" font-family="Times,serif" font-size="14.00" fill="#000000">As:0.25, Ah:0.25, Ks:0.25, Kh:0.25, Qs:0.25, Qh:0.25, </text>
</g>
<!-- node3 -->
<g id="node4" class="node">
<title>node3</title>
<polygon fill="none" stroke="#000000" points="456.833,-178.5 456.833,-322.5 535.4893,-322.5 535.4893,-178.5 456.833,-178.5"/>
<text text-anchor="middle" x="496.1611" y="-305.7" font-family="Times,serif" font-size="16.00" fill="#000000">1</text>
<polyline fill="none" stroke="#000000" points="456.833,-298.5 535.4893,-298.5 "/>
<text text-anchor="middle" x="496.1611" y="-281.7" font-family="Times,serif" font-size="16.00" fill="#000000">bet1: 300</text>
<polyline fill="none" stroke="#000000" points="456.833,-274.5 535.4893,-274.5 "/>
<text text-anchor="middle" x="496.1611" y="-257.7" font-family="Times,serif" font-size="16.00" fill="#000000">bet2: 900</text>
<polyline fill="none" stroke="#000000" points="456.833,-250.5 535.4893,-250.5 "/>
<text text-anchor="middle" x="496.1611" y="-233.7" font-family="Times,serif" font-size="16.00" fill="#000000">street: 2</text>
<polyline fill="none" stroke="#000000" points="456.833,-226.5 535.4893,-226.5 "/>
<text text-anchor="middle" x="496.1611" y="-209.7" font-family="Times,serif" font-size="16.00" fill="#000000">board: Ks</text>
<polyline fill="none" stroke="#000000" points="456.833,-202.5 535.4893,-202.5 "/>
<text text-anchor="middle" x="496.1611" y="-185.7" font-family="Times,serif" font-size="16.00" fill="#000000">depth: 3</text>
</g>
<!-- node0&#45;&gt;node3 -->
<g id="7" class="edge">
<title>node0:f0&#45;&gt;node3:f0</title>
<path fill="none" stroke="#000000" d="M78.3281,-351.5C87.6075,-351.5 87.7713,-344.1768 96.6563,-341.5 247.3276,-296.107 294.3314,-309.8672 446.9532,-310.4795"/>
<polygon fill="#000000" stroke="#000000" points="447.1541,-313.9798 457.1611,-310.5 447.1682,-306.9798 447.1541,-313.9798"/>
<text text-anchor="middle" x="251.4458" y="-344.3" font-family="Times,serif" font-size="14.00" fill="#000000">As:0.25, Ah:0.25, Ks:0.25, Kh:0.25, Qs:0.25, Qh:0.25, </text>
</g>
<!-- node9 -->
<g id="node10" class="node">
<title>node9</title>
<polygon fill="none" stroke="#000000" points="454.165,-.5 454.165,-144.5 538.1572,-144.5 538.1572,-.5 454.165,-.5"/>
<text text-anchor="middle" x="496.1611" y="-127.7" font-family="Times,serif" font-size="16.00" fill="#000000">1</text>
<polyline fill="none" stroke="#000000" points="454.165,-120.5 538.1572,-120.5 "/>
<text text-anchor="middle" x="496.1611" y="-103.7" font-family="Times,serif" font-size="16.00" fill="#000000">bet1: 300</text>
<polyline fill="none" stroke="#000000" points="454.165,-96.5 538.1572,-96.5 "/>
<text text-anchor="middle" x="496.1611" y="-79.7" font-family="Times,serif" font-size="16.00" fill="#000000">bet2: 1200</text>
<polyline fill="none" stroke="#000000" points="454.165,-72.5 538.1572,-72.5 "/>
<text text-anchor="middle" x="496.1611" y="-55.7" font-family="Times,serif" font-size="16.00" fill="#000000">street: 2</text>
<polyline fill="none" stroke="#000000" points="454.165,-48.5 538.1572,-48.5 "/>
<text text-anchor="middle" x="496.1611" y="-31.7" font-family="Times,serif" font-size="16.00" fill="#000000">board: Ks</text>
<polyline fill="none" stroke="#000000" points="454.165,-24.5 538.1572,-24.5 "/>
<text text-anchor="middle" x="496.1611" y="-7.7" font-family="Times,serif" font-size="16.00" fill="#000000">depth: 2</text>
</g>
<!-- node0&#45;&gt;node9 -->
<g id="10" class="edge">
<title>node0:f0&#45;&gt;node9:f0</title>
<path fill="none" stroke="#000000" d="M78.3281,-351.5C107.0625,-351.5 77.6615,-311.0607 96.6563,-289.5 209.1322,-161.8302 277.9011,-133.5858 444.1111,-132.5312"/>
<polygon fill="#000000" stroke="#000000" points="444.1721,-136.0312 454.1611,-132.5 444.1503,-129.0312 444.1721,-136.0312"/>
<text text-anchor="middle" x="251.4458" y="-292.3" font-family="Times,serif" font-size="14.00" fill="#000000">As:0.25, Ah:0.25, Ks:0.25, Kh:0.25, Qs:0.25, Qh:0.25, </text>
</g>
<!-- node4 -->
<g id="node5" class="node">
<title>node4</title>
<polygon fill="none" stroke="#000000" points="913.666,-393.5 913.666,-441.5 1057.5176,-441.5 1057.5176,-393.5 913.666,-393.5"/>
<text text-anchor="middle" x="985.5918" y="-424.7" font-family="Times,serif" font-size="16.00" fill="#000000">2</text>
<polyline fill="none" stroke="#000000" points="913.666,-417.5 1057.5176,-417.5 "/>
<text text-anchor="middle" x="985.5918" y="-400.7" font-family="Times,serif" font-size="16.00" fill="#000000">TERMINAL FOLD</text>
</g>
<!-- node3&#45;&gt;node4 -->
<g id="2" class="edge">
<title>node3:f0&#45;&gt;node4:f0</title>
<path fill="none" stroke="#000000" d="M535.1611,-310.5C552.7608,-310.5 557.1061,-318.7461 568.0869,-332.5 582.043,-349.9806 568.6694,-365.4652 586.0869,-379.5 698.0788,-469.7412 763.2861,-431.4138 903.4435,-429.5676"/>
<polygon fill="#000000" stroke="#000000" points="903.6894,-433.0662 913.666,-429.5 903.6431,-426.0663 903.6894,-433.0662"/>
<text text-anchor="middle" x="740.8765" y="-441.3" font-family="Times,serif" font-size="14.00" fill="#000000">As:0.33, Ah:0.33, Ks:0.33, Kh:0.33, Qs:0.33, Qh:0.33, </text>
</g>
<!-- node5 -->
<g id="node6" class="node">
<title>node5</title>
<polygon fill="none" stroke="#000000" points="913.6699,-326.5 913.6699,-374.5 1057.5137,-374.5 1057.5137,-326.5 913.6699,-326.5"/>
<text text-anchor="middle" x="985.5918" y="-357.7" font-family="Times,serif" font-size="16.00" fill="#000000">2</text>
<polyline fill="none" stroke="#000000" points="913.6699,-350.5 1057.5137,-350.5 "/>
<text text-anchor="middle" x="985.5918" y="-333.7" font-family="Times,serif" font-size="16.00" fill="#000000">TERMINAL CALL</text>
</g>
<!-- node3&#45;&gt;node5 -->
<g id="3" class="edge">
<title>node3:f0&#45;&gt;node5:f0</title>
<path fill="none" stroke="#000000" d="M535.1611,-310.5C559.0226,-310.5 562.7713,-322.4252 586.0869,-327.5 725.8034,-357.9102 765.4035,-362.3041 903.5467,-362.4933"/>
<polygon fill="#000000" stroke="#000000" points="903.6637,-365.9933 913.666,-362.5 903.6684,-358.9933 903.6637,-365.9933"/>
<text text-anchor="middle" x="740.8765" y="-364.3" font-family="Times,serif" font-size="14.00" fill="#000000">As:0.33, Ah:0.33, Ks:0.33, Kh:0.33, Qs:0.33, Qh:0.33, </text>
</g>
<!-- node6 -->
<g id="node7" class="node">
<title>node6</title>
<polygon fill="none" stroke="#000000" points="943.5957,-163.5 943.5957,-307.5 1027.5879,-307.5 1027.5879,-163.5 943.5957,-163.5"/>
<text text-anchor="middle" x="985.5918" y="-290.7" font-family="Times,serif" font-size="16.00" fill="#000000">2</text>
<polyline fill="none" stroke="#000000" points="943.5957,-283.5 1027.5879,-283.5 "/>
<text text-anchor="middle" x="985.5918" y="-266.7" font-family="Times,serif" font-size="16.00" fill="#000000">bet1: 1200</text>
<polyline fill="none" stroke="#000000" points="943.5957,-259.5 1027.5879,-259.5 "/>
<text text-anchor="middle" x="985.5918" y="-242.7" font-family="Times,serif" font-size="16.00" fill="#000000">bet2: 900</text>
<polyline fill="none" stroke="#000000" points="943.5957,-235.5 1027.5879,-235.5 "/>
<text text-anchor="middle" x="985.5918" y="-218.7" font-family="Times,serif" font-size="16.00" fill="#000000">street: 2</text>
<polyline fill="none" stroke="#000000" points="943.5957,-211.5 1027.5879,-211.5 "/>
<text text-anchor="middle" x="985.5918" y="-194.7" font-family="Times,serif" font-size="16.00" fill="#000000">board: Ks</text>
<polyline fill="none" stroke="#000000" points="943.5957,-187.5 1027.5879,-187.5 "/>
<text text-anchor="middle" x="985.5918" y="-170.7" font-family="Times,serif" font-size="16.00" fill="#000000">depth: 2</text>
</g>
<!-- node3&#45;&gt;node6 -->
<g id="6" class="edge">
<title>node3:f0&#45;&gt;node6:f0</title>
<path fill="none" stroke="#000000" d="M535.1611,-310.5C713.3492,-310.5 760.1761,-296.0658 933.3611,-295.5161"/>
<polygon fill="#000000" stroke="#000000" points="933.5974,-299.0158 943.5918,-295.5 933.5863,-292.0159 933.5974,-299.0158"/>
<text text-anchor="middle" x="740.8765" y="-312.3" font-family="Times,serif" font-size="14.00" fill="#000000">As:0.33, Ah:0.33, Ks:0.33, Kh:0.33, Qs:0.33, Qh:0.33, </text>
</g>
<!-- node7 -->
<g id="node8" class="node">
<title>node7</title>
<polygon fill="none" stroke="#000000" points="1403.0967,-292.5 1403.0967,-340.5 1546.9482,-340.5 1546.9482,-292.5 1403.0967,-292.5"/>
<text text-anchor="middle" x="1475.0225" y="-323.7" font-family="Times,serif" font-size="16.00" fill="#000000">1</text>
<polyline fill="none" stroke="#000000" points="1403.0967,-316.5 1546.9482,-316.5 "/>
<text text-anchor="middle" x="1475.0225" y="-299.7" font-family="Times,serif" font-size="16.00" fill="#000000">TERMINAL FOLD</text>
</g>
<!-- node6&#45;&gt;node7 -->
<g id="4" class="edge">
<title>node6:f0&#45;&gt;node7:f0</title>
<path fill="none" stroke="#000000" d="M1027.5918,-295.5C1049.446,-295.5 1053.897,-303.3133 1075.5176,-306.5 1216.4933,-327.2784 1255.3707,-328.4548 1393.013,-328.4986"/>
<polygon fill="#000000" stroke="#000000" points="1393.0961,-331.9985 1403.0967,-328.5 1393.0972,-324.9985 1393.0961,-331.9985"/>
<text text-anchor="middle" x="1230.3071" y="-330.3" font-family="Times,serif" font-size="14.00" fill="#000000">As:0.50, Ah:0.50, Ks:0.50, Kh:0.50, Qs:0.50, Qh:0.50, </text>
</g>
<!-- node8 -->
<g id="node9" class="node">
<title>node8</title>
<polygon fill="none" stroke="#000000" points="1403.1006,-225.5 1403.1006,-273.5 1546.9443,-273.5 1546.9443,-225.5 1403.1006,-225.5"/>
<text text-anchor="middle" x="1475.0225" y="-256.7" font-family="Times,serif" font-size="16.00" fill="#000000">1</text>
<polyline fill="none" stroke="#000000" points="1403.1006,-249.5 1546.9443,-249.5 "/>
<text text-anchor="middle" x="1475.0225" y="-232.7" font-family="Times,serif" font-size="16.00" fill="#000000">TERMINAL CALL</text>
</g>
<!-- node6&#45;&gt;node8 -->
<g id="5" class="edge">
<title>node6:f0&#45;&gt;node8:f0</title>
<path fill="none" stroke="#000000" d="M1027.5918,-295.5C1066.9487,-295.5 1326.7938,-265.4925 1392.8505,-261.8588"/>
<polygon fill="#000000" stroke="#000000" points="1393.2253,-265.3479 1403.0967,-261.5 1392.9803,-258.3522 1393.2253,-265.3479"/>
<text text-anchor="middle" x="1230.3071" y="-294.3" font-family="Times,serif" font-size="14.00" fill="#000000">As:0.50, Ah:0.50, Ks:0.50, Kh:0.50, Qs:0.50, Qh:0.50, </text>
</g>
<!-- node10 -->
<g id="node11" class="node">
<title>node10</title>
<polygon fill="none" stroke="#000000" points="913.666,-96.5 913.666,-144.5 1057.5176,-144.5 1057.5176,-96.5 913.666,-96.5"/>
<text text-anchor="middle" x="985.5918" y="-127.7" font-family="Times,serif" font-size="16.00" fill="#000000">2</text>
<polyline fill="none" stroke="#000000" points="913.666,-120.5 1057.5176,-120.5 "/>
<text text-anchor="middle" x="985.5918" y="-103.7" font-family="Times,serif" font-size="16.00" fill="#000000">TERMINAL FOLD</text>
</g>
<!-- node9&#45;&gt;node10 -->
<g id="8" class="edge">
<title>node9:f0&#45;&gt;node10:f0</title>
<path fill="none" stroke="#000000" d="M538.1611,-132.5C701.6296,-132.5 745.011,-132.5 903.5541,-132.5"/>
<polygon fill="#000000" stroke="#000000" points="903.6661,-136.0001 913.666,-132.5 903.666,-129.0001 903.6661,-136.0001"/>
<text text-anchor="middle" x="740.8765" y="-135.3" font-family="Times,serif" font-size="14.00" fill="#000000">As:0.50, Ah:0.50, Ks:0.50, Kh:0.50, Qs:0.50, Qh:0.50, </text>
</g>
<!-- node11 -->
<g id="node12" class="node">
<title>node11</title>
<polygon fill="none" stroke="#000000" points="913.6699,-29.5 913.6699,-77.5 1057.5137,-77.5 1057.5137,-29.5 913.6699,-29.5"/>
<text text-anchor="middle" x="985.5918" y="-60.7" font-family="Times,serif" font-size="16.00" fill="#000000">2</text>
<polyline fill="none" stroke="#000000" points="913.6699,-53.5 1057.5137,-53.5 "/>
<text text-anchor="middle" x="985.5918" y="-36.7" font-family="Times,serif" font-size="16.00" fill="#000000">TERMINAL CALL</text>
</g>
<!-- node9&#45;&gt;node11 -->
<g id="9" class="edge">
<title>node9:f0&#45;&gt;node11:f0</title>
<path fill="none" stroke="#000000" d="M538.1611,-132.5C564.8014,-132.5 561.2427,-106.1161 586.0869,-96.5 719.2722,-44.9498 765.2673,-64.5197 903.5479,-65.4653"/>
<polygon fill="#000000" stroke="#000000" points="903.654,-68.9656 913.666,-65.5 903.6781,-61.9657 903.654,-68.9656"/>
<text text-anchor="middle" x="740.8765" y="-99.3" font-family="Times,serif" font-size="14.00" fill="#000000">As:0.50, Ah:0.50, Ks:0.50, Kh:0.50, Qs:0.50, Qh:0.50, </text>
</g>
</g>
</svg>
